<svg overflow="hidden" viewBox="0 0 2901 2175" xmlns="http://www.w3.org/2000/svg" xmlns:xlink="http://www.w3.org/1999/xlink" >

  <defs><clipPath id="clip0"><rect height="2175" width="2901" x="627" y="242"/></clipPath></defs>
  <g clip-path="url(#clip0)" transform="translate(-627 -242)">
  <path d="M1373.87 1001.71C1352.73 991.437 1372.67 949.75 1382.94 935.25 1393.21 920.75 1355.15 854.896 1335.81 819.854 1316.48 784.812 1356.96 742.521 1364.81 731.646 1372.67 720.771 1369.57 697.406 1369.57 697.406 1362.21 698.9 1326.83 704.13 1290.09 709.504 1253.35 714.879 1218.8 718.881 1214.05 722.825 1210.82 725.507 1206.03 729.969 1204.53 737.726 1203.03 745.488 1204.5 762.888 1205.94 775.136 1207.66 789.771 1209.04 797.094 1208.24 802.841 1207.43 808.588 1200.02 811.439 1193.53 820.159 1172.66 848.211 1161.04 863.175 1152.27 896.583 1149.66 906.501 1145.61 931.978 1141.34 938.967 1137.06 945.956 1130.85 950.19 1124.23 955.163 1115.93 961.389 1101.7 968.179 1087.58 975.777 1090.35 975.468 1093.88 978.929 1092.34 1000.5 1089.92 1034.34 1076.63 1069.38 1076.63 1091.13 1076.63 1110.6 1087.76 1173.05 1082.19 1187.79L1094.75 1198.67C1094.75 1198.67 1163.63 1222.23 1185.38 1234.32 1193.04 1238.57 1202.27 1239.74 1210.65 1239.1 1226.1 1237.93 1240.66 1230.76 1251.23 1226.46 1266.79 1220.12 1312.76 1199.48 1351.65 1179.14 1353.55 1178.15 1356.32 1176.09 1358.17 1175.11 1398.05 1153.96 1405.3 1112.88 1412.55 1106.23 1419.8 1099.59 1436.45 1054.75 1435.84 1045.09 1435.24 1035.42 1395.02 1011.98 1373.87 1001.71Z" fill="currentColor" id="Buk-gu" stroke="#7F7F7F" stroke-width="1.83333" transform="matrix(1.00034 0 0 1 653.593 220.25)"/>
    <path d="M1566.06 1410.9C1553.24 1402.35 1548.97 1385.27 1556.66 1377.57 1564.35 1369.89 1554.95 1340.83 1548.12 1325.45 1541.28 1310.07 1499.41 1310.93 1489.16 1309.22 1478.91 1307.52 1473.78 1288.72 1461.82 1278.46 1449.86 1268.21 1418.24 1271.63 1408.85 1265.65 1399.45 1259.67 1379.8 1217.81 1377.23 1213.53 1374.67 1209.26 1351.65 1179.14 1351.65 1179.14 1312.76 1199.48 1266.79 1220.12 1251.23 1226.46 1240.66 1230.77 1226.1 1237.93 1210.65 1239.1 1210.65 1239.1 1226 1244.29 1220.87 1256.26 1215.74 1268.22 1199.51 1322.9 1200.37 1348.53 1201.22 1374.16 1218.31 1412.61 1220.02 1424.57 1221.73 1436.54 1215.74 1480.97 1212.33 1492.07 1208.91 1503.18 1199.51 1528.82 1191.82 1531.38L1269.23 1568.68C1270.15 1567.97 1271.12 1567.21 1272.14 1566.41 1288.37 1553.59 1287.52 1557.87 1303.75 1548.46 1319.99 1539.07 1331.09 1519.42 1332.81 1513.43 1334.52 1507.46 1367.84 1504.89 1377.23 1504.89 1386.63 1504.89 1396.88 1510.87 1403.72 1515.14 1410.56 1519.42 1445.16 1513.01 1445.16 1513.01 1442.6 1504.46 1450.71 1508.3 1454.13 1504.89 1457.55 1501.47 1462.68 1490.36 1471.22 1487.8 1479.76 1485.24 1515.65 1482.67 1540.42 1466.44 1565.2 1450.21 1583.98 1416.03 1583.98 1416.03 1577.36 1414.67 1571.05 1414.23 1566.06 1410.9Z" fill="currentColor" id="Busanjin-gu" stroke="#7F7F7F" stroke-width="1.83333" transform="matrix(1.00034 0 0 1 653.593 220.25)"/>
    <path d="M1451.57 1633.9C1460.96 1624.51 1454.98 1577.51 1456.69 1562.13 1458.41 1546.75 1447.73 1521.55 1445.16 1513 1445.16 1513 1410.55 1519.41 1403.72 1515.13 1396.88 1510.87 1386.63 1504.88 1377.23 1504.88 1367.83 1504.88 1334.51 1507.45 1332.8 1513.43 1331.09 1519.41 1319.98 1539.07 1303.75 1548.46 1287.52 1557.86 1288.37 1553.59 1272.13 1566.41 1271.12 1567.21 1270.15 1567.96 1269.22 1568.68L1269.22 1568.68 1269.22 1568.68C1255.38 1579.37 1251.63 1580.82 1251.63 1592.04 1251.63 1604 1244.79 1618.52 1243.94 1626.22 1243.08 1633.9 1239.66 1646.72 1251.63 1648.43 1263.59 1650.14 1262.73 1650.99 1272.98 1662.1 1275.55 1664.88 1278.15 1667.44 1278.82 1669.52 1278.82 1669.52 1321.68 1668.08 1350.73 1672.35 1375.56 1676.01 1406.84 1684.62 1415.45 1687.06 1416.78 1681.06 1420.57 1677.54 1428.95 1670.96 1434.2 1666.83 1440 1663.25 1445.94 1660.71 1442.97 1658.65 1437.41 1654.25 1436.17 1649.29 1434.48 1642.44 1442.17 1643.3 1451.57 1633.9Z" fill="currentColor" id="Dong-gu" stroke="#7F7F7F" stroke-width="1.83333" transform="matrix(1.00034 0 0 1 653.593 220.25)"/>
    <path d="M1431.91 1234.89C1457.55 1230.61 1460.97 1227.2 1492.58 1203.27 1524.19 1179.35 1555.81 1170.81 1564.35 1182.77 1572.9 1194.73 1584 1210.97 1603.66 1211.82 1623.3 1212.68 1648.94 1202.43 1660.05 1203.27 1671.15 1204.13 1708.75 1212.67 1715.58 1214.38 1722.42 1216.1 1735.11 1214.4 1735.11 1214.4 1735.05 1196.16 1736.35 1176.39 1734.38 1163.12 1730.97 1140.05 1728.4 1111.86 1728.4 1111.86 1715.59 1116.13 1706.19 1106.73 1694.23 1099.89 1682.27 1093.06 1681.42 1081.95 1667.74 1058.88 1654.07 1035.81 1629.29 1038.37 1600.24 1040.94 1571.19 1043.5 1560.08 1029.83 1548.13 1019.58 1536.16 1009.33 1518.22 1009.33 1483.19 1023.85 1448.16 1038.38 1435.85 1045.09 1435.85 1045.09 1436.45 1054.76 1419.8 1099.59 1412.55 1106.24 1405.3 1112.88 1398.05 1153.97 1358.18 1175.11 1356.33 1176.09 1353.55 1178.15 1351.66 1179.14 1351.66 1179.14 1374.68 1209.27 1377.24 1213.54 1377.23 1213.53 1406.28 1239.17 1431.91 1234.89Z" fill="currentColor" id="Dongnae-gu" stroke="#7F7F7F" stroke-width="1.83333" transform="matrix(1.00034 0 0 1 653.593 220.25)"/>
    <path d="M861.542 1615.54C860.333 1607.08 883.292 1588.96 895.375 1575.67 907.458 1562.37 912.292 1500.75 914.708 1487.46 917.125 1474.17 923.167 1429.46 921.958 1413.75 920.75 1398.04 932.833 1340.04 934.042 1306.21 935.25 1272.37 938.875 1261.5 943.708 1251.83 948.542 1242.17 992.042 1226.46 1006.54 1219.21 1021.04 1211.96 1068.17 1193.83 1079.04 1191.42 1080.18 1191.16 1081.54 1189.5 1082.18 1187.78 1087.76 1173.05 1076.62 1110.59 1076.62 1091.12 1076.62 1069.37 1089.92 1034.33 1092.33 1000.5 1093.88 978.924 1090.34 975.458 1087.58 975.773 1086.61 976.29 1085.64 976.807 1084.68 977.334 1067.88 986.541 1051.33 996.701 1035.71 1003.49 1006.1 1016.36 987.044 1020.71 954.888 1028.54 895.573 1042.98 886.375 1045.99 844.896 1040.15 822.889 1037.06 809.54 1030.18 798.172 1031.66 786.804 1033.13 771.062 1041.22 750.94 1049.78 727.934 1059.57 707.697 1069.61 702.844 1069.61 700.418 1069.61 696.672 1068.03 693.346 1064.24 690.021 1060.45 690.326 1056.69 687.87 1050.81 683.83 1041.14 686.285 1034.04 680.91 1029.78 675.531 1025.53 660.934 1022.19 649.909 1022.19 644.356 1022.19 635.989 1021.46 631.117 1022.36 626.245 1023.25 624.878 1025.76 621.789 1028.39 615.607 1033.66 610.344 1042.41 600.343 1056.33 589.715 1071.13 590.363 1078.03 583.896 1082.1 577.429 1086.16 563.006 1088.23 548.298 1088.23 531.609 1088.23 511.429 1089.59 504.097 1093.33 487.311 1101.9 432.371 1154.75 432.371 1162.32 432.371 1165.42 452.323 1187.99 465.75 1202.56 489.675 1228.52 485.832 1233.08 485.832 1277.66 485.832 1320.85 488.834 1315.05 504.668 1328.15 521.082 1341.71 529.25 1362.98 523.286 1381.26 519.772 1392.01 507.732 1391.22 477.509 1391.22 457.383 1391.22 438.61 1389.52 426.561 1384.48 420.326 1381.88 421.148 1377.39 407.464 1375.08 393.781 1372.77 360.76 1372.31 348.459 1372.31 328.715 1372.31 326.632 1368.32 316.269 1371.84 305.906 1375.37 297.535 1385.51 290.585 1395.05 274.654 1416.9 258.163 1410.22 221.69 1421.25 207.079 1425.67 189.979 1430.81 172.299 1435.59L140.041 1415.34C116.019 1399.53 58.058 1402.52 36.337 1414.14 13.3013 1426.47 18.2507 1438.27 40.4115 1486.9 59.015 1527.72 67.3622 1534.91 100.973 1555.66 126.788 1571.59 162.129 1581.77 178.505 1581.83 196.833 1581.91 202.193 1582.6 208.239 1588.78 214.286 1594.95 219.738 1608.09 227.147 1626.65 234.421 1644.88 235.978 1659.87 244.17 1670.14 246.945 1673.63 253.518 1682.08 257.882 1685.3 262.247 1688.51 264.403 1686.48 266.892 1690.35 271.875 1698.09 267.931 1707.64 266.853 1715 265.229 1726.07 264.731 1731.57 256.959 1735.1 249.187 1738.63 235.91 1739.27 205.151 1741.92L162.361 1745.62C151.95 1754.87 152.351 1767.72 149.915 1779.63 147.871 1789.63 143.289 1795.6 143.149 1802.99 143.009 1810.39 147.315 1819.21 149.369 1821.27 152.743 1824.64 191.671 1838 235.098 1854.35 272.561 1868.46 282.566 1877.34 313.548 1883.02 329.039 1885.86 349.774 1887.9 366.637 1888.44 383.501 1888.98 396.928 1890.56 396.947 1887.38 396.962 1884.47 401.336 1869.97 409.717 1860.4L420.108 1848.54C427.581 1847.32 430.258 1857.96 434.918 1869.1 441.274 1884.28 446.073 1893.52 451.656 1896.44 457.238 1899.35 476.209 1891.25 485.697 1881.15 490.071 1876.49 489.061 1876.24 494.696 1869.95 500.332 1863.66 501.294 1853.66 503.203 1845.32 505.117 1836.97 506.852 1828.05 507.157 1816.62 507.461 1805.19 509.53 1791.49 510.816 1774.86 512.309 1755.67 512.507 1738.84 515.04 1723.67 517.573 1708.5 522.435 1695.01 528.119 1681.67L544.369 1643.53 573.518 1643.53C600.464 1643.53 602.03 1646.81 602.03 1660.76 602.03 1669.07 590.841 1694.6 580.648 1719.69L566.747 1753.91 564.408 1769.88 574.031 1808.94C577.182 1832.78 582.847 1857.16 587.598 1861.09 593.05 1865.63 613.031 1867.97 633.336 1863.83 643.491 1861.76 643.901 1860.2 653.191 1857.23 662.481 1854.27 677 1851.1 681.476 1848.57 687.919 1844.93 696.619 1832.6 701.616 1817.7 706.619 1802.79 709.2 1781.03 707.687 1768.77 706.851 1761.97 722.119 1746.51 737.402 1727.74 752.797 1708.84 760.945 1697.49 767.746 1694.11 770.641 1692.66 770.598 1693.81 771.849 1695.35 771.849 1695.35 819.245 1659.05 824.078 1653 828.912 1646.96 837.37 1639.71 851.87 1633.67 859.255 1630.59 862.479 1628.14 863.175 1625.36 863.852 1622.68 862.136 1619.69 861.542 1615.54Z" fill="currentColor" id="Gangseo-gu" stroke="#7F7F7F" stroke-width="1.83333" transform="matrix(1.00034 0 0 1 653.593 220.25)"/>
    <path d="M1877.75 844.625C1865.67 836.167 1864.46 819.25 1859.62 807.167 1854.79 795.083 1819.75 799.917 1796.79 793.875 1773.83 787.833 1784.71 756.417 1784.71 739.5 1784.71 722.583 1798 698.417 1808.87 681.5 1819.75 664.583 1823.37 624.708 1822.17 604.167 1820.96 583.625 1799.21 573.958 1776.25 559.458 1757.54 547.641 1733.22 527.81 1724.86 520.869 1723.3 521.85 1721.48 522.894 1719.26 524.112 1705.3 531.763 1676.79 547.65 1633.29 568.008 1605.73 580.913 1587.83 591.518 1571.15 597.366 1554.46 603.214 1541.7 601.9 1518.99 604.244 1489.31 607.313 1463.18 605.65 1456.85 609.034 1450.53 612.417 1433.74 626.53 1417.85 646.289 1410.27 655.704 1404.37 663.974 1394.05 679.538 1386.43 691.041 1373.27 696.657 1369.58 697.406 1369.58 697.406 1372.68 720.771 1364.82 731.646 1356.97 742.521 1316.49 784.812 1335.82 819.854 1355.16 854.896 1393.22 920.75 1382.95 935.25 1372.68 949.75 1352.74 991.437 1373.88 1001.71 1395.03 1011.98 1435.24 1035.42 1435.85 1045.08 1435.85 1045.08 1448.16 1038.37 1483.19 1023.84 1518.22 1009.32 1536.16 1009.32 1548.13 1019.57 1560.09 1029.82 1571.19 1043.5 1600.24 1040.93 1629.29 1038.37 1654.07 1035.8 1667.74 1058.87 1681.42 1081.94 1682.27 1093.05 1694.23 1099.88 1706.19 1106.72 1715.59 1116.11 1728.4 1111.85 1741.22 1107.57 1743.78 1098.18 1759.16 1090.49 1774.54 1082.8 1776.25 1075.96 1777.11 1060.58 1777.96 1045.2 1780.52 1012.74 1792.49 1011.03 1804.45 1009.32 1839.48 991.379 1842.9 984.54 1846.31 977.706 1865.97 932.422 1874.51 929.861 1883.06 927.299 1887.32 897.391 1895.02 893.973 1901.94 890.899 1909.07 880.271 1910.44 878.154 1894.55 865.389 1887.8 851.662 1877.75 844.625Z" fill="currentColor" id="Geumjeong-gu" stroke="#7F7F7F" stroke-width="1.83333" transform="matrix(1.00034 0 0 1 653.593 220.25)"/>
    <path d="M2270.46 1267.54C2259.58 1263.92 2259.58 1230.08 2253.54 1216.79 2247.5 1203.5 2216.08 1185.37 2207.62 1182.96 2199.17 1180.54 2178.62 1192.62 2173.79 1198.67 2168.96 1204.71 2155.67 1226.46 2147.21 1231.29 2138.75 1236.12 2137.54 1225.25 2133.92 1215.58 2130.29 1205.92 2121.83 1178.12 2118.21 1167.25 2114.58 1156.37 2104.92 1140.67 2097.67 1134.62 2090.42 1128.58 2042.08 1145.5 2026.37 1144.29 2010.67 1143.08 1993.75 1128.58 1988.92 1120.12 1984.08 1111.67 2003.42 1104.42 2009.46 1094.75 2015.5 1085.08 2026.37 1035.54 2026.37 1013.79 2026.37 992.042 2014.29 990.833 2011.87 972.708 2009.46 954.583 1980.46 923.167 1975.62 913.5 1970.79 903.833 1945.42 900.208 1921.25 885.708 1917.19 883.272 1913.65 880.735 1910.44 878.154 1909.07 880.271 1901.93 890.899 1895.01 893.973 1887.32 897.391 1883.05 927.299 1874.51 929.861 1865.97 932.422 1846.31 977.706 1842.89 984.54 1839.47 991.379 1804.44 1009.32 1792.48 1011.03 1780.52 1012.74 1777.96 1045.2 1777.1 1060.58 1776.24 1075.96 1774.54 1082.8 1759.15 1090.49 1743.77 1098.18 1741.21 1107.57 1728.4 1111.85 1728.4 1111.85 1730.96 1140.04 1734.38 1163.11 1736.35 1176.38 1735.05 1196.15 1735.1 1214.39 1735.15 1227.85 1735.88 1240.1 1739.5 1250.26 1745.65 1267.45 1748.62 1280.59 1754.54 1292.24 1756.85 1296.8 1760.06 1301.95 1763.43 1305.8 1775.39 1319.47 1808.71 1343.4 1811.27 1356.21 1813.83 1369.03 1824.09 1387.83 1824.94 1405.77 1825.65 1420.52 1831.08 1437.04 1833.01 1442.47 1834.43 1442.42 1835.8 1442.35 1837.28 1442.31 1853.8 1441.77 1864.33 1441.51 1872.2 1442.72 1880.07 1443.93 1884.93 1448.67 1890.44 1454.4 1897.4 1461.62 1905.97 1470.3 1913.21 1471.96 1921.5 1473.85 1945.19 1472.81 1959.02 1467.27 1972.85 1461.73 1976.53 1452.64 1984.41 1444.26 1993.24 1434.86 2004.28 1432.16 2019.24 1432.98 2034.2 1433.79 2038.41 1435.44 2052.26 1443.89 2065.63 1452.04 2071.59 1458.66 2075.54 1460.95 2079.5 1463.25 2081.46 1461.21 2092.17 1452.06 2096.9 1448.02 2117.46 1432.04 2127.47 1425.21 2137.47 1418.38 2136.93 1420.68 2139.1 1419.65 2143.96 1417.32 2149.47 1417.49 2162.97 1411.12 2170.71 1407.47 2178.55 1403.9 2184.3 1398.77 2190.24 1393.29 2192.25 1387.16 2192.09 1380.66L2189.01 1355.49C2188.94 1345.48 2189.02 1337.2 2190.36 1329.72 2191.69 1322.23 2193.57 1316.67 2195.47 1314.39 2197.37 1312.1 2201.24 1306.85 2210.74 1303.29 2220.24 1299.73 2238.03 1297.09 2252.5 1292.39 2264.81 1288.38 2271.57 1283.25 2281.07 1280.03 2283.74 1279.12 2286.4 1278.43 2289.02 1277.79 2286.8 1276.03 2279.51 1270.56 2270.46 1267.54Z" fill="currentColor" id="Haeundae-gu" stroke="#7F7F7F" stroke-width="1.83333" transform="matrix(1.00034 0 0 1 653.593 220.25)"/>
    <path d="M1303.75 1815.04C1323.4 1817.6 1390.04 1813.33 1394.32 1804.79 1398.59 1796.25 1406.28 1771.46 1413.11 1763.78 1419.95 1756.09 1426.5 1744.89 1426.5 1744.89 1419.4 1734.71 1417.43 1724.68 1416.11 1711 1414.96 1698.97 1414.33 1692.14 1415.46 1687.06 1406.85 1684.62 1375.57 1676.01 1350.74 1672.35 1321.69 1668.08 1278.83 1669.52 1278.83 1669.52 1280.83 1675.77 1273.42 1679.83 1259.32 1689.44 1240.52 1702.26 1240.52 1703.97 1236.25 1718.5 1231.98 1733.02 1220.87 1738.14 1233.69 1755.23 1246.51 1772.33 1259.32 1787.7 1264.45 1798.81 1269.58 1809.92 1275.3 1825.77 1275.3 1825.77 1275.3 1825.77 1284.1 1812.48 1303.75 1815.04Z" fill="currentColor" id="Jung-gu" stroke="#7F7F7F" stroke-width="1.83333" transform="matrix(1.00034 0 0 1 653.593 220.25)"/>
    <path d="M1820.64 1672.58C1813.23 1665.8 1807.79 1650.36 1805.54 1637.8 1802.68 1621.88 1795.65 1595.87 1786.76 1583.39 1777.88 1570.91 1767.15 1571.96 1761.18 1571.7 1755.68 1571.46 1752.25 1567.79 1746.37 1560.52 1740.48 1553.26 1735.56 1544.55 1733.91 1538.5 1733.51 1537 1733.84 1535.5 1734.64 1533.98 1730.1 1534.68 1723.09 1535.19 1717.29 1533.08 1707.89 1529.66 1686.53 1510.86 1678.84 1505.74 1671.15 1500.61 1663.46 1437.38 1655.77 1432.26 1651.93 1429.7 1645.25 1425.48 1637.46 1422.81 1629.66 1420.13 1620.74 1419.01 1613.91 1419.44 1605.56 1419.96 1594.37 1418.13 1583.99 1416.02 1583.99 1416.02 1565.21 1450.2 1540.43 1466.43 1515.65 1482.67 1479.76 1485.23 1471.22 1487.8 1462.68 1490.36 1457.55 1501.47 1454.13 1504.88 1450.72 1508.3 1442.6 1504.46 1445.17 1513 1447.73 1521.55 1458.41 1546.75 1456.7 1562.13 1454.99 1577.51 1460.98 1624.5 1451.58 1633.9 1442.17 1643.3 1434.48 1642.45 1436.19 1649.29 1437.43 1654.25 1442.98 1658.65 1445.95 1660.71 1452.6 1657.86 1459.41 1656.33 1465.8 1656.95 1482.62 1658.6 1483.06 1659.7 1482.94 1680.85 1482.82 1701.95 1489.27 1710.82 1511.02 1718.52 1529.51 1725.06 1535.33 1727.09 1566.02 1717.4 1580.85 1712.72 1588.55 1707.59 1599.56 1706.63 1610.57 1705.68 1617.52 1706.47 1624.73 1709.13 1631.95 1711.79 1636.45 1716.52 1639.99 1723.02 1643.54 1729.52 1642.64 1739.12 1641.44 1749.61 1638.92 1771.65 1644.45 1779.33 1660.78 1782.17 1668.54 1783.52 1682.48 1785.4 1685.68 1783.11 1688.88 1780.82 1691.43 1773.72 1696.86 1766.26 1704.54 1755.72 1703.25 1754.15 1709.65 1754.49 1716.05 1754.82 1715.31 1749.23 1723.07 1763.95 1735.04 1786.61 1756.28 1795.13 1771.76 1791.24 1783.91 1788.2 1798.85 1783.33 1804.58 1775.57 1807.45 1771.69 1811.93 1766.02 1813.87 1758.55 1815.81 1751.07 1815.18 1741.76 1820.66 1726.35 1824.53 1715.45 1827.99 1710.88 1830.07 1704.83 1832.16 1698.78 1832.89 1691.24 1833 1688.08 1833.25 1681.73 1828.05 1679.36 1820.64 1672.58Z" fill="currentColor" id="Nam-gu" stroke="#7F7F7F" stroke-width="1.83333" transform="matrix(1.00034 0 0 1 653.593 220.25)"/>
    <path d="M1202.93 1903.05C1213.18 1897.91 1203.79 1833.84 1201.22 1819.31 1198.65 1804.79 1182.42 1796.25 1175.58 1793.68 1168.75 1791.12 1167.89 1733.01 1160.2 1712.51 1152.51 1692 1116.63 1690.29 1105.52 1686.88 1094.41 1683.46 1096.97 1682.6 1096.12 1673.2 1096.12 1673.2 1063.65 1663.81 1045.71 1660.39 1027.77 1656.97 1002.99 1679.19 979.92 1680.04 956.85 1680.89 933.781 1662.1 916.69 1656.12 899.599 1650.14 863.17 1625.36 863.17 1625.36 862.474 1628.14 859.251 1630.59 851.865 1633.67 837.365 1639.71 828.907 1646.96 824.074 1653 819.24 1659.04 771.845 1695.35 771.845 1695.35 773.531 1697.44 775.803 1701.18 774.184 1709.12 772.299 1718.35 765.89 1757.77 760.462 1792.81 751.071 1853.43 750.694 1856.91 761.086 1864.51 774.165 1874.08 792.483 1872.65 797.713 1864.18 799.815 1860.78 807.563 1839.83 814.146 1815.54 831.145 1752.85 832.073 1738.75 845.949 1734.35 857.897 1730.56 868.178 1732.6 873.137 1749.5 878.091 1766.39 877.293 1800.27 880.754 1861 884.389 1924.76 887.24 1995.78 888.661 2017.78 889.865 2036.44 889.928 2047.28 891.9 2056.11 893.872 2064.94 897.535 2073.05 906.361 2083.68L914.051 2109.95 934.559 2144.56C942.626 2154.28 956.444 2146.54 972.404 2138.01 981.524 2133.12 980.572 2122.77 980.572 2100.4 980.572 2076.55 986.435 2060.8 998.62 2051.45 1010.8 2042.09 1033.58 2042.77 1055.45 2048.82 1062.77 2050.85 1067.18 2055.19 1069 2058.68 1070.82 2062.17 1068.72 2071.74 1067.46 2078.77 1064.17 2097.06 1071.59 2098.34 1072.83 2100.32 1078.84 2109.99 1118.83 2114.17 1125.28 2103.87 1129.53 2097.09 1129.3 2075.25 1127.09 2050.01 1124.88 2024.76 1122.59 1999.53 1116.35 1989.36 1106.38 1973.13 1093.21 1961.43 1087.6 1951.12 1081.99 1940.81 1077.32 1930.16 1076.2 1922.84 1073.99 1908.22 1078.12 1901.81 1090.47 1884.28 1101.02 1869.3 1103.96 1865.87 1123.69 1869.43 1140.58 1872.47 1152.38 1873.69 1158.29 1880.81 1159.2 1881.91 1159.83 1882.39 1160.29 1882.56 1161.05 1878.98 1162.07 1883.25 1160.29 1882.56 1159.96 1884.15 1159.69 1887.27 1159.73 1893.1 1159.87 1908.4 1157.35 1919.22 1157.71 1932.49 1157.71 1932.49 1164.48 1932.09 1168.75 1929.53 1173.03 1926.97 1192.67 1908.18 1202.93 1903.05Z" fill="currentColor" id="Saha-gu" stroke="#7F7F7F" stroke-width="1.83333" transform="matrix(1.00034 0 0 1 653.593 220.25)"/>
    <path d="M1212.33 1492.07C1215.74 1480.96 1221.72 1436.53 1220.02 1424.57 1218.3 1412.6 1201.22 1374.16 1200.37 1348.53 1199.52 1322.9 1215.75 1268.21 1220.87 1256.25 1226 1244.29 1210.65 1239.1 1210.65 1239.1 1202.26 1239.74 1193.03 1238.57 1185.38 1234.31 1163.63 1222.23 1094.75 1198.67 1094.75 1198.67L1082.19 1187.78C1081.54 1189.5 1080.18 1191.16 1079.05 1191.42 1068.17 1193.83 1021.05 1211.96 1006.55 1219.21 992.046 1226.46 948.546 1242.17 943.713 1251.83 938.88 1261.5 935.255 1272.37 934.046 1306.21 932.838 1340.04 920.755 1398.04 921.963 1413.75 923.171 1429.46 917.13 1474.17 914.713 1487.46 912.296 1500.75 907.463 1562.37 895.38 1575.67 883.296 1588.96 860.338 1607.08 861.546 1615.54 862.141 1619.69 863.857 1622.68 863.185 1625.36 863.185 1625.36 899.614 1650.14 916.704 1656.12 933.79 1662.1 956.86 1680.89 979.934 1680.04 1003 1679.18 1027.78 1656.97 1045.73 1660.39 1063.67 1663.81 1096.14 1673.2 1096.14 1673.2 1095.28 1663.81 1099.55 1646.72 1111.52 1643.3 1123.48 1639.88 1122.62 1610.83 1133.73 1590.32 1144.84 1569.82 1143.99 1551.87 1146.55 1544.19 1149.11 1536.49 1184.14 1533.93 1191.83 1531.37 1199.52 1528.81 1208.91 1503.18 1212.33 1492.07Z" fill="currentColor" id="Sasang-gu" stroke="#7F7F7F" stroke-width="1.83333" transform="matrix(1.00034 0 0 1 653.593 220.25)"/>
    <path d="M1146.53 1544.19C1143.97 1551.88 1144.82 1569.82 1133.72 1590.33 1122.61 1610.83 1123.46 1639.89 1111.5 1643.3 1099.54 1646.72 1095.27 1663.81 1096.12 1673.21 1096.98 1682.61 1094.41 1683.46 1105.52 1686.88 1116.63 1690.3 1152.51 1692.01 1160.2 1712.51 1167.89 1733.02 1168.75 1791.12 1175.58 1793.68 1182.42 1796.25 1198.65 1804.79 1201.22 1819.32 1203.78 1833.84 1213.18 1897.92 1202.93 1903.05 1192.67 1908.18 1173.02 1926.97 1168.75 1929.53 1164.49 1932.1 1157.71 1932.5 1157.71 1932.5 1157.95 1941.19 1160.44 1951.65 1162.19 1962.62 1164.41 1976.49 1162.09 1966.47 1165.98 1980.25 1167.93 1987.14 1166.19 2005.85 1169.17 2017.15 1172.15 2028.45 1181.54 2033.39 1182.68 2034.53 1185.29 2037.14 1185.1 2041.11 1189.12 2040.64 1193.15 2040.16 1200.92 2034.99 1208.45 2030.13 1217.32 2024.41 1227.63 2021.08 1234.96 2012.78L1229 1977.86 1224.1 1944.44 1240.71 1929.44 1269.49 1914.66 1270 1889.5C1268.34 1882.26 1266.97 1875.12 1263.67 1867.34 1259.83 1858.27 1259.75 1847.49 1263.09 1840.08 1265.97 1833.72 1270.49 1827.6 1275.3 1825.75 1275.3 1825.75 1269.58 1809.9 1264.45 1798.8 1259.32 1787.69 1246.51 1772.32 1233.69 1755.22 1220.88 1738.13 1231.98 1733 1236.26 1718.48 1240.53 1703.95 1240.53 1702.25 1259.32 1689.42 1273.42 1679.82 1280.83 1675.76 1278.83 1669.51 1278.17 1667.42 1275.56 1664.86 1273 1662.09 1262.74 1650.98 1263.6 1650.12 1251.64 1648.42 1239.68 1646.71 1243.09 1633.89 1243.95 1626.2 1244.81 1618.51 1251.64 1603.99 1251.64 1592.02 1251.64 1580.81 1255.4 1579.36 1269.24 1568.66L1191.83 1531.36C1184.13 1533.94 1149.1 1536.5 1146.53 1544.19Z" fill="currentColor" id="Seo-gu" stroke="#7F7F7F" stroke-width="1.83333" transform="matrix(1.00034 0 0 1 653.593 220.25)"/>
    <path d="M1824.95 1405.77C1824.09 1387.83 1813.84 1369.03 1811.28 1356.22 1808.72 1343.41 1775.39 1319.48 1763.43 1305.81 1760.07 1301.96 1756.86 1296.81 1754.54 1292.25 1754.54 1292.25 1716.43 1289.57 1704.47 1301.53 1692.52 1313.5 1686.53 1329.73 1675.42 1331.44 1664.31 1333.15 1652.36 1338.28 1650.65 1348.53 1648.94 1358.78 1647.23 1379.28 1643.81 1379.28 1640.39 1379.28 1637.46 1422.81 1637.46 1422.81 1645.25 1425.48 1651.93 1429.7 1655.77 1432.26 1663.46 1437.39 1671.15 1500.62 1678.84 1505.74 1686.53 1510.87 1707.89 1529.66 1717.29 1533.08 1723.09 1535.19 1730.1 1534.68 1734.64 1533.98 1736.69 1530.07 1742.18 1526 1748.59 1521.26 1757.96 1514.33 1765.98 1490.44 1767.18 1478.47 1769.99 1450.37 1788.15 1444.25 1833.02 1442.47 1831.09 1437.04 1825.65 1420.52 1824.95 1405.77Z" fill="currentColor" id="Suyeong-gu" stroke="#7F7F7F" stroke-width="1.83333" transform="matrix(1.00034 0 0 1 653.593 220.25)"/>
    <path d="M1629.94 2012.94C1591.13 1978 1581.57 1965.74 1581.57 1937.92 1581.57 1926.45 1581.87 1911.76 1578.15 1901.47 1574.42 1891.18 1566.67 1885.29 1553.98 1870.07 1537.76 1850.61 1499.08 1809.15 1471.16 1782.92 1447.33 1760.53 1433.6 1755.08 1426.5 1744.9 1426.5 1744.9 1419.95 1756.09 1413.11 1763.78 1406.28 1771.47 1398.59 1796.25 1394.32 1804.79 1390.04 1813.33 1323.4 1817.61 1303.75 1815.04 1284.1 1812.49 1275.29 1825.77 1275.29 1825.77 1289.48 1820.32 1301.21 1841.28 1301.21 1863.62 1301.21 1870.76 1297.55 1875.02 1305.93 1882.28 1314.31 1889.55 1335.39 1899.18 1359.66 1912.33 1436.2 1953.83 1461.4 1969.84 1466.18 1991.59 1468.37 2001.57 1476.12 2012.81 1483.4 2016.56 1490.68 2020.31 1510.75 2036.21 1528.28 2049.56 1559.99 2073.68 1604.15 2088.77 1623.77 2082.54 1629.43 2080.75 1638.78 2056.78 1643.25 2044.41 1651.08 2022.79 1646.87 2028.18 1629.94 2012.94Z" fill="currentColor" id="Yeongdo-gu" stroke="#7F7F7F" stroke-width="1.83333" transform="matrix(1.00034 0 0 1 653.593 220.25)"/>
    <path d="M1739.5 1250.27C1735.88 1240.11 1735.15 1227.86 1735.1 1214.4 1735.1 1214.4 1722.42 1216.1 1715.58 1214.38 1708.74 1212.67 1671.15 1204.13 1660.04 1203.27 1648.94 1202.42 1623.3 1212.67 1603.65 1211.82 1584 1210.97 1572.89 1194.73 1564.35 1182.77 1555.8 1170.81 1524.19 1179.35 1492.57 1203.27 1460.96 1227.2 1457.54 1230.61 1431.91 1234.89 1406.28 1239.17 1377.23 1213.53 1377.23 1213.53 1379.79 1217.8 1399.44 1259.67 1408.84 1265.65 1418.24 1271.63 1449.86 1268.21 1461.82 1278.46 1473.78 1288.71 1478.9 1307.51 1489.15 1309.22 1499.41 1310.93 1541.27 1310.07 1548.11 1325.45 1554.95 1340.83 1564.34 1369.88 1556.66 1377.57 1548.97 1385.26 1553.24 1402.35 1566.05 1410.89 1571.05 1414.22 1577.35 1414.67 1583.98 1416.02 1594.36 1418.14 1605.56 1419.96 1613.9 1419.44 1620.73 1419.01 1629.65 1420.14 1637.45 1422.81 1637.45 1422.81 1640.39 1379.28 1643.8 1379.28 1647.22 1379.28 1648.93 1358.78 1650.64 1348.52 1652.34 1338.27 1664.31 1333.14 1675.41 1331.44 1686.52 1329.73 1692.5 1313.49 1704.47 1301.53 1716.43 1289.57 1754.53 1292.24 1754.53 1292.24 1748.62 1280.6 1745.65 1267.46 1739.5 1250.27Z" fill="currentColor" id="Yeonje-gu" stroke="#7F7F7F" stroke-width="1.83333" transform="matrix(1.00034 0 0 1 653.593 220.25)"/>
    <path d="M2770.3 449.577C2767.26 447.702 2767.68 449.234 2768.72 436.344L2770.14 418.489 2773.19 401.713 2743.2 382.926C2736.56 378.769 2725.14 373.375 2717.37 370.185 2709.6 366.995 2705.45 366.004 2699.34 360.939 2687.11 350.808 2678.59 338.72 2671.82 330.44 2658.28 313.882 2659.57 310.131 2664.85 292.504 2670.8 272.634 2679.23 272.271 2670.88 256.123 2667.56 249.704 2656.46 227.959 2655.66 221.608 2654.86 215.257 2655.18 213.512 2656.37 206.098 2658 195.851 2664.72 189.375 2662.96 182.623 2661.19 175.87 2650.94 166.682 2638.06 154.251 2630.33 146.798 2616.03 138.074 2609.61 129.219 2603.2 120.36 2597.4 111.37 2594.26 104.458 2591.56 98.4985 2586.16 88.479 2585.9 80.5185 2585.67 73.689 2581.36 70.673 2574.23 65.1727 2563.85 57.159 2547.12 59.5563 2534.82 58.4882 2529.36 58.0145 2483.73 68.5173 2463.31 75.487 2444.56 81.8863 2452.07 77.5992 2440.29 79.6002 2416.73 83.6022 2444.8 77.9762 2404.14 86.8937 2376.89 92.8677 2351.79 100.577 2332.49 103.559 2313.19 106.546 2299.96 107.778 2297 106.744 2294.04 105.71 2284.76 103.061 2277.46 96.6087 2270.15 90.1562 2264.55 80.4315 2258.67 74.9505 2251.7 68.4352 2253.29 69.136 2244.71 63.5632 2236.13 57.9903 2219.53 53.6935 2211.76 51.2043 2196.2 46.2308 2186.3 49.0438 2180.87 56.3712 2178 60.2427 2176.94 65.9218 2175.52 70.1317 2174.11 74.3415 2172.33 79.2425 2173.42 82.6403 2175.62 89.436 2183.92 93.4622 2193.98 100.896 2204.19 108.45 2211.2 113.269 2212.62 121.573 2214.04 129.876 2212.85 128.726 2206.13 141.612 2204.87 144.019 2202.06 145.353 2200.37 148.311 2198.66 151.269 2198.08 155.851 2196.99 159.345 2194.79 166.339 2192.94 179.515 2192.93 183.174 2192.9 196.175 2180.91 215.644 2171.32 215.644 2168.66 215.644 2156.12 223.88 2143.45 233.953 2123.5 249.806 2109.98 251.647 2077.68 251.594 2055.74 251.56 2033.07 243.837 2009.41 233.044 1997.58 227.645 1991.26 225.663 1982.5 218.597 1970.78 209.143 1964.44 197.983 1957.51 190.622 1942.3 174.43 1941.24 181.211 1916.56 181.211 1876.61 181.211 1826.18 191.617 1826.18 200.762 1826.18 202.84 1821.55 204.257 1823.41 208.481 1825.27 212.705 1828.17 216.722 1832.37 220.366 1842.06 228.791 1856.29 238.752 1856.59 245.335 1856.89 251.918 1855.36 254.514 1844.4 269.961 1839.04 277.511 1834.32 278.047 1827.35 291.556 1820.34 305.123 1812.6 337.41 1811.65 351.069 1809.48 382.249 1791.87 396.884 1774.5 426.701 1768.34 437.276 1759.3 440.476 1753.41 451.351 1747.51 462.226 1739.31 491.347 1737.22 498.8 1733.35 512.618 1733.12 515.702 1724.86 520.879 1733.22 527.819 1757.54 547.65 1776.25 559.468 1799.21 573.968 1820.96 583.635 1822.17 604.176 1823.38 624.718 1819.75 664.593 1808.88 681.51 1798 698.426 1784.71 722.593 1784.71 739.51 1784.71 756.426 1773.84 787.843 1796.8 793.885 1819.75 799.926 1854.8 795.093 1859.63 807.176 1864.46 819.26 1865.67 836.176 1877.75 844.635 1887.93 851.759 1894.38 864.872 1910.69 877.767 1913.75 880.184 1917.44 883.427 1921.25 885.718 1945.42 900.218 1970.8 903.843 1975.63 913.51 1980.46 923.176 2009.46 954.593 2011.88 972.718 2014.3 990.843 2026.38 992.051 2026.38 1013.8 2026.38 1035.55 2015.5 1085.09 2009.46 1094.76 2003.42 1104.43 1984.09 1111.68 1988.92 1120.13 1993.75 1128.59 2010.67 1143.09 2026.38 1144.3 2042.09 1145.51 2090.42 1128.59 2097.67 1134.63 2104.92 1140.68 2114.59 1156.38 2118.21 1167.26 2121.84 1178.13 2130.3 1205.93 2133.92 1215.59 2137.55 1225.26 2138.75 1236.13 2147.21 1231.3 2155.67 1226.47 2168.96 1204.72 2173.8 1198.68 2178.63 1192.63 2199.17 1180.55 2207.63 1182.97 2216.09 1185.38 2247.5 1203.51 2253.55 1216.8 2259.59 1230.09 2259.59 1263.93 2270.46 1267.55 2279.51 1270.57 2286.81 1276.04 2289.03 1277.81 2295.7 1276.17 2301.93 1274.91 2306.54 1271.47 2319.38 1261.89 2325.79 1246.84 2333.92 1233.72 2346.05 1214.12 2343.26 1212.22 2349.43 1207.57 2355.6 1202.94 2360.81 1203.2 2369.11 1203.2 2388.19 1203.2 2397 1195.51 2392.13 1169.5 2389.34 1154.63 2388.53 1135.24 2378.07 1131.27 2373.41 1129.5 2363.46 1132.25 2361.06 1130.6 2358.67 1128.95 2356.56 1128.82 2356.29 1125.57 2355.74 1119.08 2362.49 1107.41 2371.61 1093.96 2379.53 1082.27 2387.14 1077.86 2389.52 1070.3 2390.75 1066.38 2391.1 1052.21 2391.94 1049.97 2392.79 1047.74 2394.12 1046.39 2397.32 1046.01 2403.72 1045.25 2413.28 1050.5 2421.91 1057.02 2431.46 1064.25 2445.78 1071.31 2448.82 1067.32 2450.34 1065.32 2446.88 1063.46 2447.63 1056.66 2448.38 1049.87 2445.78 1036.24 2445.78 1026.37 2445.78 1008.76 2445.87 998.997 2449.1 990.529 2452.33 982.061 2449.12 983.559 2462.09 972.679 2473.91 962.766 2485.01 951.282 2494.32 935.951L2499.02 886.82C2500.34 873.001 2500.21 851.044 2498.37 840.14 2496.54 829.24 2493 829.385 2491.8 826.345 2489.73 821.111 2486.69 812.101 2487.22 810.1 2487.27 809.917 2487.34 809.762 2487.42 809.617 2486.56 810.231 2484.73 811.275 2481.15 812.764 2471.15 816.925 2462.24 835.316 2454.9 836.592 2451.08 837.259 2448.26 837.245 2443.3 836.094 2438.35 834.944 2433.65 832.977 2430.85 830.178 2420.51 819.84 2422.29 805.262 2432.16 792.894 2442.13 780.39 2454.66 769.38 2475.31 765.576 2483.35 764.097 2489.7 765.629 2492.91 763.961 2497.55 761.554 2505.62 759.099 2509.48 756.62 2517.2 751.661 2522.45 739.239 2528.93 729.345 2540.76 711.268 2546.85 707.614 2548.7 698.296 2549.63 693.636 2549.42 680.412 2548.08 674.588 2546.74 668.764 2546.68 667.909 2543.05 664.796 2538.92 661.268 2530.14 661.446 2528.11 660.48 2526.07 659.513 2525.12 658.754 2525.33 656.028 2525.75 650.581 2530.83 644.568 2540.1 638.498 2543.79 636.081 2552.52 629.252 2555.19 626.888 2557.85 624.525 2556.54 617.545 2556.78 612.388 2557.21 602.775 2554.9 593.306 2555.44 559.99 2556.18 513.687 2557.64 483.116 2562.18 470.539 2566.73 457.963 2573.94 462.018 2592.22 459.592 2604.05 458.021 2617.49 458.248 2625.21 453.99 2632.93 449.732 2634.67 438.035 2638.76 431.491 2644.46 422.375 2643.7 425.154 2644.65 423.83 2645.59 422.501 2649.51 417.972 2661.95 434.309 2673.54 449.543 2684.39 459.365 2695.5 464.063 2701.05 466.417 2706.82 467.354 2713.46 467.451 2720.1 467.548 2745.63 472.154 2754.73 471.743 2781.36 470.539 2767.11 469.394 2772.84 467.098 2775.83 465.904 2782.21 458.128 2781.81 454.937 2781.4 451.747 2773.93 451.82 2770.3 449.577Z" fill="currentColor" id="Gijang-gun" stroke="#7F7F7F" stroke-width="1.83333" transform="matrix(1.00034 0 0 1 653.593 220.25)"/>
  <!-- 텍스트 레이블들 -->
 <text font-family="Malgun Gothic, Malgun Gothic_MSFontService, sans-serif" font-size="83" font-weight="700" x="2722.19" y="892" data-id="Gijang-gun">
  기장군
</text>
<text font-family="Malgun Gothic, Malgun Gothic_MSFontService, sans-serif" font-size="83" font-weight="700" x="1246" y="1587" data-id="Gangseo-gu">
  강서구
</text>
<text font-family="Malgun Gothic, Malgun Gothic_MSFontService, sans-serif" font-size="83" font-weight="700" x="2047" y="2155" data-id="Yeongdo-gu">
  영도구
</text>
<text font-family="Malgun Gothic, Malgun Gothic_MSFontService, sans-serif" font-size="83" font-weight="700" x="1863" y="1628" data-id="Busanjin-gu">
  부산진구
</text>
<text font-family="Malgun Gothic, Malgun Gothic_MSFontService, sans-serif" font-size="83" font-weight="700" x="1792" y="1292" data-id="Buk-gu">
  북구
</text>
<text font-family="Malgun Gothic, Malgun Gothic_MSFontService, sans-serif" font-size="83" font-weight="700" x="1578" y="1674" data-id="Sasang-gu">
  사상구
</text>
<text font-family="Malgun Gothic, Malgun Gothic_MSFontService, sans-serif" font-size="83" font-weight="700" x="2097" y="1363" data-id="Dongnae-gu">
  동래구
</text>
<text font-family="Malgun Gothic, Malgun Gothic_MSFontService, sans-serif" font-size="83" font-weight="700" x="2122" y="1529" data-id="Yeonje-gu">
  연제구
</text>
<text font-family="Malgun Gothic, Malgun Gothic_MSFontService, sans-serif" font-size="83" font-weight="700" x="2469" y="1512" data-id="Haeundae-gu">
  해운대구
</text>
<text font-family="Malgun Gothic, Malgun Gothic_MSFontService, sans-serif" font-size="83" font-weight="700" x="2227" y="1667" data-id="Suyeong-gu">
  수영구
</text>
<text font-family="Malgun Gothic, Malgun Gothic_MSFontService, sans-serif" font-size="83" font-weight="700" x="2182" y="1855" data-id="Nam-gu">
  남구
</text>
<text font-family="Malgun Gothic, Malgun Gothic_MSFontService, sans-serif" font-size="83" font-weight="700" x="1898" y="1988" data-id="Jung-gu">
  중구
</text>
<text font-family="Malgun Gothic, Malgun Gothic_MSFontService, sans-serif" font-size="83" font-weight="700" x="1962" y="1845" data-id="Dong-gu">
  동구
</text>
<text font-family="Malgun Gothic, Malgun Gothic_MSFontService, sans-serif" font-size="83" font-weight="700" x="1551" y="2083" data-id="Saha-gu">
  사하구
</text>
<text font-family="Malgun Gothic, Malgun Gothic_MSFontService, sans-serif" font-size="83" font-weight="700" x="1768" y="1894" data-id="Seo-gu">
  서구
</text>
<text font-family="Malgun Gothic, Malgun Gothic_MSFontService, sans-serif" font-size="83" font-weight="700" x="2112" y="1114" data-id="Geumjeong-gu">
  금정구
</text>

</g></svg>
